<svg xmlns="http://www.w3.org/2000/svg" viewBox="0 0 100 100">
  <defs>
    <radialGradient id="g1" cx="50%" cy="50%" r="50%">
      <stop offset="0%" stop-color="#00ff9f" stop-opacity="0.9"/>
      <stop offset="100%" stop-color="#00c8ff" stop-opacity="0.6"/>
    </radialGradient>
  </defs>
  <!-- Hexágono exterior -->
  <polygon points="50,5 90,27.5 90,72.5 50,95 10,72.5 10,27.5"
    fill="none" stroke="url(#g1)" stroke-width="3"/>
  <!-- Hexágono interior -->
  <polygon points="50,18 78,33.5 78,66.5 50,82 22,66.5 22,33.5"
    fill="none" stroke="#00c8ff" stroke-width="1.5" opacity="0.5"/>
  <!-- Símbolo Docker-like: ballena simplificada -->
  <rect x="30" y="44" width="10" height="7" rx="1.5" fill="#00ff9f"/>
  <rect x="43" y="38" width="10" height="7" rx="1.5" fill="#00ff9f"/>
  <rect x="43" y="47" width="10" height="7" rx="1.5" fill="#00c8ff"/>
  <rect x="56" y="44" width="10" height="7" rx="1.5" fill="#00ff9f"/>
  <!-- Ola base -->
  <path d="M28 55 Q38 50 48 55 Q58 60 68 55 Q73 52 75 55"
    fill="none" stroke="#00c8ff" stroke-width="2" stroke-linecap="round"/>
</svg>
